<?xml version="1.0"?>
<svg xmlns="http://www.w3.org/2000/svg" height="512px" viewBox="0 -30 512 512" width="512px"><path d="m179.199219 128h-68.265625c-4.710938 0-8.535156-3.8125-8.535156-8.535156 0-4.71875 3.824218-8.53125 8.535156-8.53125h68.265625c4.710937 0 8.535156 3.8125 8.535156 8.53125 0 4.722656-3.824219 8.535156-8.535156 8.535156zm0 0" fill="#D80027"/><path d="m401.066406 179.199219h-290.132812c-4.710938 0-8.535156-3.8125-8.535156-8.53125s3.824218-8.535157 8.535156-8.535157h290.132812c4.710938 0 8.535156 3.816407 8.535156 8.535157s-3.824218 8.53125-8.535156 8.53125zm0 0" fill="#D80027"/><path d="m401.066406 230.398438h-290.132812c-4.710938 0-8.535156-3.8125-8.535156-8.53125s3.824218-8.535157 8.535156-8.535157h290.132812c4.710938 0 8.535156 3.816407 8.535156 8.535157s-3.824218 8.53125-8.535156 8.53125zm0 0" fill="#D80027"/><path d="m307.199219 281.601562h-196.265625c-4.710938 0-8.535156-3.816406-8.535156-8.535156s3.824218-8.53125 8.535156-8.53125h196.265625c4.710937 0 8.535156 3.8125 8.535156 8.53125s-3.824219 8.535156-8.535156 8.535156zm0 0" fill="#D80027"/><path d="m409.601562 452.265625c-56.464843 0-102.402343-45.933594-102.402343-102.398437 0-56.464844 45.9375-102.402344 102.402343-102.402344 56.464844 0 102.398438 45.9375 102.398438 102.402344 0 56.464843-45.933594 102.398437-102.398438 102.398437zm0-187.730469c-47.054687 0-85.335937 38.277344-85.335937 85.332032 0 47.050781 38.28125 85.332031 85.335937 85.332031 47.050782 0 85.332032-38.28125 85.332032-85.332031 0-47.054688-38.28125-85.332032-85.332032-85.332032zm0 0" fill="#D80027"/><path d="m322.226562 392.535156h-265.097656c-31.503906 0-57.128906-25.636718-57.128906-57.132812v-278.273438c0-31.496094 25.625-57.128906 57.128906-57.128906h397.742188c31.503906 0 57.128906 25.632812 57.128906 57.128906v278.265625c0 2.429688-.1875 4.804688-.488281 7.160157-.527344 4.273437-4.171875 7.472656-8.464844 7.472656-.050781 0-.101563 0-.160156 0-4.359375-.082032-7.960938-3.429688-8.347657-7.78125-3.914062-44.304688-40.4375-77.710938-84.9375-77.710938-47.054687 0-85.335937 38.277344-85.335937 85.332032 0 10.554687 1.988281 21 5.90625 31.027343 1.03125 2.628907.691406 5.589844-.894531 7.917969-1.589844 2.328125-4.226563 3.722656-7.050782 3.722656zm-265.097656-375.46875c-22.089844 0-40.0625 17.972656-40.0625 40.0625v278.265625c0 22.101563 17.972656 40.070313 40.0625 40.070313h253.363282c-2.191407-8.378906-3.292969-16.945313-3.292969-25.597656 0-56.464844 45.9375-102.402344 102.402343-102.402344 35.632813 0 67.003907 17.855468 85.332032 45.527344v-235.863282c0-22.089844-17.972656-40.0625-40.0625-40.0625zm0 0" fill="#D80027"/><path d="m367.796875 401.066406c-2.1875 0-4.371094-.835937-6.035156-2.5-3.335938-3.335937-3.335938-8.730468 0-12.066406l84.472656-84.472656c3.335937-3.335938 8.730469-3.335938 12.066406 0 3.335938 3.339844 3.335938 8.730468 0 12.066406l-84.472656 84.472656c-1.671875 1.664063-3.855469 2.5-6.03125 2.5zm0 0" fill="#D80027"/><path d="m452.265625 401.066406c-2.183594 0-4.367187-.835937-6.03125-2.5l-84.472656-84.472656c-3.335938-3.335938-3.335938-8.726562 0-12.066406 3.335937-3.335938 8.730469-3.335938 12.066406 0l84.472656 84.472656c3.335938 3.335938 3.335938 8.730469 0 12.066406-1.664062 1.664063-3.847656 2.5-6.035156 2.5zm0 0" fill="#D80027"/></svg>
